<svg xmlns="http://www.w3.org/2000/svg" width="71.512" height="71.512" viewBox="0 0 71.512 71.512">
  <path id="FontAwsome_user-circle_" data-name="FontAwsome (user-circle)" d="M35.756,8A35.756,35.756,0,1,0,71.512,43.756,35.75,35.75,0,0,0,35.756,8Zm0,13.841A12.688,12.688,0,1,1,23.068,34.529,12.688,12.688,0,0,1,35.756,21.841Zm0,49.6a27.628,27.628,0,0,1-21.122-9.833,16.075,16.075,0,0,1,14.2-8.622,3.528,3.528,0,0,1,1.024.159,19.089,19.089,0,0,0,5.9.995,19.017,19.017,0,0,0,5.9-.995,3.528,3.528,0,0,1,1.024-.159,16.075,16.075,0,0,1,14.2,8.622A27.628,27.628,0,0,1,35.756,71.438Z" transform="translate(0 -8)" fill="#fff"/>
</svg>
