<svg xmlns="http://www.w3.org/2000/svg" width="18.713" height="14.26" viewBox="0 0 18.713 14.26">
  <path id="FontAwsome_sign-out-alt_" data-name="FontAwsome (sign-out-alt)" d="M18.454,71.74l-6.238,6.238a.893.893,0,0,1-1.522-.631V73.782H5.644a.889.889,0,0,1-.891-.891V69.326a.889.889,0,0,1,.891-.891h5.05V64.871a.893.893,0,0,1,1.522-.631l6.238,6.238A.9.9,0,0,1,18.454,71.74ZM7.129,77.792V76.307a.447.447,0,0,0-.446-.446H3.564a1.187,1.187,0,0,1-1.188-1.188V67.544a1.187,1.187,0,0,1,1.188-1.188H6.683a.447.447,0,0,0,.446-.446V64.425a.447.447,0,0,0-.446-.446H3.564A3.565,3.565,0,0,0,0,67.544v7.129a3.565,3.565,0,0,0,3.564,3.564H6.683A.447.447,0,0,0,7.129,77.792Z" transform="translate(0 -63.979)" fill="#ff5050"/>
</svg>
