<svg xmlns="http://www.w3.org/2000/svg" width="11.798" height="11.7" viewBox="0 0 11.798 11.7">
  <path id="FontAwsome_clock_" data-name="FontAwsome (clock)" d="M13.9,8a5.85,5.85,0,1,0,5.9,5.85A5.874,5.874,0,0,0,13.9,8Zm0,10.568a4.718,4.718,0,1,1,4.757-4.718A4.736,4.736,0,0,1,13.9,18.568Zm1.47-2.463L13.35,14.65a.284.284,0,0,1-.117-.229V10.548a.285.285,0,0,1,.285-.283h.761a.285.285,0,0,1,.285.283V13.89l1.589,1.146a.281.281,0,0,1,.062.4l-.447.611A.289.289,0,0,1,15.369,16.105Z" transform="translate(-8 -8)" fill="#707070"/>
</svg>
