<svg xmlns="http://www.w3.org/2000/svg" width="21" height="24" viewBox="0 0 21 24">
  <path id="FontAwsome_copy_" data-name="FontAwsome (copy)" d="M15,21v1.875A1.125,1.125,0,0,1,13.875,24H1.125A1.125,1.125,0,0,1,0,22.875V5.625A1.125,1.125,0,0,1,1.125,4.5H4.5V18.375A2.628,2.628,0,0,0,7.125,21ZM15,4.875V0H7.125A1.125,1.125,0,0,0,6,1.125v17.25A1.125,1.125,0,0,0,7.125,19.5h12.75A1.125,1.125,0,0,0,21,18.375V6H16.125A1.128,1.128,0,0,1,15,4.875Zm5.671-1.454L17.579.329a1.125,1.125,0,0,0-.8-.329H16.5V4.5H21V4.216a1.125,1.125,0,0,0-.329-.8Z" fill="#707070"/>
</svg>
