<svg xmlns="http://www.w3.org/2000/svg" width="30" height="24" viewBox="0 0 30 24">
  <path id="FontAwsome_dice_" data-name="FontAwsome (dice)" d="M27.75,9H22.184a3.8,3.8,0,0,1-.8,4.187L15,19.574V21.75A2.25,2.25,0,0,0,17.25,24h10.5A2.25,2.25,0,0,0,30,21.75V11.25A2.25,2.25,0,0,0,27.75,9ZM22.5,17.625A1.125,1.125,0,1,1,23.625,16.5,1.125,1.125,0,0,1,22.5,17.625ZM20.326,8.873l-8.2-8.2a2.3,2.3,0,0,0-3.253,0l-8.2,8.2a2.3,2.3,0,0,0,0,3.253l8.2,8.2a2.3,2.3,0,0,0,3.253,0l8.2-8.2A2.3,2.3,0,0,0,20.326,8.873ZM4.5,11.625A1.125,1.125,0,1,1,5.625,10.5,1.125,1.125,0,0,1,4.5,11.625Zm6,6A1.125,1.125,0,1,1,11.625,16.5,1.125,1.125,0,0,1,10.5,17.625Zm0-6A1.125,1.125,0,1,1,11.625,10.5,1.125,1.125,0,0,1,10.5,11.625Zm0-6A1.125,1.125,0,1,1,11.625,4.5,1.125,1.125,0,0,1,10.5,5.625Zm6,6A1.125,1.125,0,1,1,17.625,10.5,1.125,1.125,0,0,1,16.5,11.625Z" fill="#707070"/>
</svg>
