<svg xmlns="http://www.w3.org/2000/svg" width="49.375" height="39.5" viewBox="0 0 49.375 39.5">
  <path id="FontAwsome_project-diagram_" data-name="FontAwsome (project-diagram)" d="M29.625,24.688H19.75a2.469,2.469,0,0,0-2.469,2.469v9.875A2.469,2.469,0,0,0,19.75,39.5h9.875a2.469,2.469,0,0,0,2.469-2.469V27.156A2.469,2.469,0,0,0,29.625,24.688ZM14.813,2.469A2.469,2.469,0,0,0,12.344,0H2.469A2.469,2.469,0,0,0,0,2.469v9.875a2.469,2.469,0,0,0,2.469,2.469H9.853L15.5,24.691a4.921,4.921,0,0,1,4.252-2.472h.022L14.813,13.54V9.875H32.094V4.938H14.813ZM46.906,0H37.031a2.469,2.469,0,0,0-2.469,2.469v9.875a2.469,2.469,0,0,0,2.469,2.469h9.875a2.469,2.469,0,0,0,2.469-2.469V2.469A2.469,2.469,0,0,0,46.906,0Z" fill="#865e3b"/>
</svg>
