<svg xmlns="http://www.w3.org/2000/svg" width="35.017" height="35.009" viewBox="0 0 35.017 35.009">
  <path id="FontAwsome_instagram_" data-name="FontAwsome (instagram)" d="M17.437,40.354a8.976,8.976,0,1,0,8.976,8.976A8.962,8.962,0,0,0,17.437,40.354Zm0,14.812a5.836,5.836,0,1,1,5.836-5.836,5.846,5.846,0,0,1-5.836,5.836ZM28.874,39.987a2.094,2.094,0,1,1-2.094-2.094A2.089,2.089,0,0,1,28.874,39.987Zm5.945,2.125c-.133-2.8-.773-5.289-2.828-7.335s-4.531-2.687-7.335-2.828c-2.89-.164-11.554-.164-14.444,0-2.8.133-5.281.773-7.335,2.82S.189,39.3.048,42.1c-.164,2.89-.164,11.554,0,14.444.133,2.8.773,5.289,2.828,7.335s4.531,2.687,7.335,2.828c2.89.164,11.554.164,14.444,0,2.8-.133,5.289-.773,7.335-2.828s2.687-4.531,2.828-7.335c.164-2.89.164-11.546,0-14.437ZM31.085,59.649a5.908,5.908,0,0,1-3.328,3.328c-2.3.914-7.773.7-10.32.7s-8.023.2-10.32-.7A5.908,5.908,0,0,1,3.79,59.649c-.914-2.3-.7-7.773-.7-10.32s-.2-8.023.7-10.32a5.908,5.908,0,0,1,3.328-3.328c2.3-.914,7.773-.7,10.32-.7s8.023-.2,10.32.7a5.908,5.908,0,0,1,3.328,3.328c.914,2.3.7,7.773.7,10.32S32,57.353,31.085,59.649Z" transform="translate(0.075 -31.825)" fill="#f85353"/>
</svg>
