<svg xmlns="http://www.w3.org/2000/svg" width="35.634" height="47.512" viewBox="0 0 35.634 47.512">
  <path id="FontAwsome_file-pdf_" data-name="FontAwsome (file-pdf)" d="M16.88,23.765c-.464-1.485-.455-4.352-.186-4.352C17.474,19.413,17.4,22.837,16.88,23.765Zm-.158,4.38a42.819,42.819,0,0,1-2.635,5.818,34.17,34.17,0,0,1,5.837-2.032,12.021,12.021,0,0,1-3.2-3.786ZM7.99,39.726c0,.074,1.225-.5,3.239-3.73C10.607,36.581,8.528,38.269,7.99,39.726ZM23.014,14.848h12.62V45.285a2.222,2.222,0,0,1-2.227,2.227H2.227A2.222,2.222,0,0,1,0,45.285V2.227A2.222,2.222,0,0,1,2.227,0H20.787V12.62A2.234,2.234,0,0,0,23.014,14.848ZM22.271,30.79A9.314,9.314,0,0,1,18.309,25.8c.418-1.717,1.076-4.324.575-5.958-.436-2.728-3.935-2.459-4.436-.631-.464,1.7-.037,4.092.752,7.145a87.139,87.139,0,0,1-3.786,7.962c-.009,0-.009.009-.019.009-2.515,1.29-6.83,4.129-5.057,6.31a2.884,2.884,0,0,0,2,.928c1.661,0,3.313-1.67,5.67-5.735a52.9,52.9,0,0,1,7.331-2.153,14.063,14.063,0,0,0,5.939,1.81A2.4,2.4,0,0,0,29.1,31.458C27.811,30.2,24.062,30.558,22.271,30.79ZM34.984,9.744,25.89.65A2.225,2.225,0,0,0,24.313,0h-.557V11.878H35.634v-.566A2.22,2.22,0,0,0,34.984,9.744ZM28.108,33.435c.38-.251-.232-1.1-3.972-.835C27.579,34.066,28.108,33.435,28.108,33.435Z" fill="#8a5220"/>
</svg>
