<svg xmlns="http://www.w3.org/2000/svg" width="24" height="24" viewBox="0 0 24 24">
  <path id="FontAwsome_phone-square-alt_" data-name="FontAwsome (phone-square-alt)" d="M21.429,32H2.571A2.571,2.571,0,0,0,0,34.571V53.429A2.571,2.571,0,0,0,2.571,56H21.429A2.571,2.571,0,0,0,24,53.429V34.571A2.571,2.571,0,0,0,21.429,32Zm-.878,16.466-.8,3.482a.8.8,0,0,1-.783.623A15.537,15.537,0,0,1,3.429,37.036a.841.841,0,0,1,.623-.783l3.482-.8a.976.976,0,0,1,.181-.021.872.872,0,0,1,.739.487l1.607,3.75a.959.959,0,0,1,.065.317.911.911,0,0,1-.295.622L7.8,42.265A12.424,12.424,0,0,0,13.735,48.2L15.4,46.17a.911.911,0,0,1,.622-.295.956.956,0,0,1,.317.065l3.75,1.607a.871.871,0,0,1,.487.739A.933.933,0,0,1,20.551,48.466Z" transform="translate(0 -32)" fill="#8a5220"/>
</svg>
