<svg xmlns="http://www.w3.org/2000/svg" width="39" height="39" viewBox="0 0 39 39">
  <path id="FontAwsome_snapchat_" data-name="FontAwsome (snapchat)" d="M19.5,8A19.5,19.5,0,1,0,39,27.5,19.5,19.5,0,0,0,19.5,8ZM32.828,34.647c-.275.637-1.423,1.1-3.523,1.431a9.662,9.662,0,0,0-.338,1.25.606.606,0,0,1-.637.464h-.016c-.487,0-1.006-.228-2.029-.228a4.133,4.133,0,0,0-2.941,1.077,5.866,5.866,0,0,1-3.869,1.431,6,6,0,0,1-3.814-1.431,4.146,4.146,0,0,0-2.941-1.077,20.043,20.043,0,0,0-2.029.244.624.624,0,0,1-.653-.472A9.871,9.871,0,0,0,9.7,36.078c-1.085-.165-3.523-.59-3.578-1.683a.556.556,0,0,1,.464-.582c3.641-.6,5.276-4.332,5.347-4.49,0-.008.008-.016.016-.024a1.176,1.176,0,0,0,.126-.983c-.267-.621-1.407-.841-1.887-1.038-1.242-.487-1.415-1.054-1.337-1.439a1.345,1.345,0,0,1,1.722-.81,2.963,2.963,0,0,0,1.234.33,1.1,1.1,0,0,0,.519-.11c-.11-1.879-.37-4.56.3-6.062a7.14,7.14,0,0,1,6.613-4.27l.527-.008a7.077,7.077,0,0,1,6.628,4.27c.668,1.5.409,4.175.3,6.062a.989.989,0,0,0,.448.11,3.1,3.1,0,0,0,1.156-.33,1.437,1.437,0,0,1,1.069,0,1.094,1.094,0,0,1,.818.936c.008.511-.448.951-1.352,1.305-.11.047-.244.086-.385.134-.511.165-1.29.409-1.494.9a1.206,1.206,0,0,0,.126.983c.008.008.008.016.016.024.071.157,1.706,3.892,5.347,4.49A.6.6,0,0,1,32.828,34.647Z" transform="translate(0 -8)" fill="#ffed0a"/>
</svg>
