<svg xmlns="http://www.w3.org/2000/svg" width="31" height="31" viewBox="0 0 31 31">
  <path id="FontAwsome_whatsapp-square_" data-name="FontAwsome (whatsapp-square)" d="M15.5,38.283A9.119,9.119,0,0,0,7.771,52.254l.215.346-.92,3.363,3.453-.906.332.2a9.1,9.1,0,0,0,4.643,1.273H15.5a9.05,9.05,0,0,0,6.449-15.569A9.05,9.05,0,0,0,15.5,38.283ZM20.863,51.32a2.8,2.8,0,0,1-1.848,1.3,5.348,5.348,0,0,1-3.287-.685A12.318,12.318,0,0,1,11.044,47.8,5.312,5.312,0,0,1,9.923,44.96a3.071,3.071,0,0,1,.962-2.29,1,1,0,0,1,.733-.346c.18,0,.367,0,.526.007s.394-.062.616.471.775,1.9.844,2.034a.484.484,0,0,1,.021.477c-.526,1.052-1.086,1.01-.8,1.495a7.47,7.47,0,0,0,3.73,3.259c.277.138.436.118.6-.069s.685-.8.865-1.073.367-.228.616-.138,1.6.754,1.875.893.457.208.526.318A2.435,2.435,0,0,1,20.863,51.32ZM27.679,32H3.321A3.322,3.322,0,0,0,0,35.321V59.679A3.322,3.322,0,0,0,3.321,63H27.679A3.322,3.322,0,0,0,31,59.679V35.321A3.322,3.322,0,0,0,27.679,32ZM15.493,58.378a10.963,10.963,0,0,1-5.245-1.335L4.429,58.571l1.557-5.688A10.994,10.994,0,1,1,26.571,47.41,11.075,11.075,0,0,1,15.493,58.378Z" transform="translate(0 -32)" fill="#1ec546"/>
</svg>
