<svg xmlns="http://www.w3.org/2000/svg" width="40" height="40" viewBox="0 0 40 40">
  <path id="FontAwsome_envelope-open-text_" data-name="FontAwsome (envelope-open-text)" d="M13.75,16.872h12.5a1.25,1.25,0,0,0,1.25-1.25v-1.25a1.25,1.25,0,0,0-1.25-1.25H13.75a1.25,1.25,0,0,0-1.25,1.25v1.25A1.25,1.25,0,0,0,13.75,16.872Zm-1.25,6.25a1.25,1.25,0,0,0,1.25,1.25h12.5a1.25,1.25,0,0,0,1.25-1.25v-1.25a1.25,1.25,0,0,0-1.25-1.25H13.75a1.25,1.25,0,0,0-1.25,1.25ZM20,32.585A6.241,6.241,0,0,1,16.339,31.4L0,19.6V36.247A3.75,3.75,0,0,0,3.75,40h32.5A3.75,3.75,0,0,0,40,36.247V19.6L23.661,31.4A6.247,6.247,0,0,1,20,32.585ZM38.563,12.728c-.691-.542-1.347-1.052-2.313-1.782V7.5a3.75,3.75,0,0,0-3.75-3.75H26.441l-.706-.512C24.422,2.276,21.812-.03,20,0c-1.812-.027-4.421,2.279-5.735,3.237l-.706.512H7.5A3.75,3.75,0,0,0,3.75,7.5v3.448c-.966.729-1.622,1.24-2.313,1.782A3.75,3.75,0,0,0,0,15.678v.832l7.5,5.418V7.5h25V21.928L40,16.51v-.832A3.75,3.75,0,0,0,38.563,12.728Z" transform="translate(0 0.003)" fill="#865e3b"/>
</svg>
