<svg xmlns="http://www.w3.org/2000/svg" width="39.186" height="31.826" viewBox="0 0 39.186 31.826">
  <path id="FontAwsome_twitter_" data-name="FontAwsome (twitter)" d="M35.158,56.014c.025.348.025.7.025,1.044,0,10.617-8.081,22.85-22.85,22.85A22.7,22.7,0,0,1,0,76.3a16.614,16.614,0,0,0,1.939.1,16.084,16.084,0,0,0,9.971-3.431A8.045,8.045,0,0,1,4.4,67.4a10.129,10.129,0,0,0,1.517.124,8.494,8.494,0,0,0,2.113-.273,8.032,8.032,0,0,1-6.44-7.882v-.1a8.088,8.088,0,0,0,3.63,1.019A8.043,8.043,0,0,1,2.735,49.549a22.828,22.828,0,0,0,16.56,8.4,9.066,9.066,0,0,1-.2-1.84,8.039,8.039,0,0,1,13.9-5.5,15.812,15.812,0,0,0,5.1-1.939A8.009,8.009,0,0,1,34.561,53.1a16.1,16.1,0,0,0,4.625-1.243A17.264,17.264,0,0,1,35.158,56.014Z" transform="translate(0 -48.082)" fill="#0aa5b0"/>
</svg>
