<svg xmlns="http://www.w3.org/2000/svg" width="6.761" height="12.143" viewBox="0 0 6.761 12.143">
  <path id="FontAwsome_thermometer-half_" data-name="FontAwsome (thermometer-half)" d="M5.071,9.107a1.611,1.611,0,0,1-1.69,1.518,1.611,1.611,0,0,1-1.69-1.518,1.5,1.5,0,0,1,.845-1.314V5.312a.806.806,0,0,1,.845-.759.806.806,0,0,1,.845.759v2.48A1.5,1.5,0,0,1,5.071,9.107ZM5.916,7.1a2.855,2.855,0,0,1,.845,2.008,3.222,3.222,0,0,1-3.38,3.036H3.357A3.226,3.226,0,0,1,0,9.091,2.856,2.856,0,0,1,.845,7.1V2.277A2.417,2.417,0,0,1,3.381,0,2.417,2.417,0,0,1,5.916,2.277ZM5.494,9.107A2.134,2.134,0,0,0,4.648,7.53V2.277A1.21,1.21,0,0,0,3.381,1.138,1.21,1.21,0,0,0,2.113,2.277V7.53A2.139,2.139,0,0,0,1.268,9.1,2.019,2.019,0,0,0,3.366,11h.015A2.016,2.016,0,0,0,5.494,9.107Z" transform="translate(0)" fill="#707070"/>
</svg>
