<svg xmlns="http://www.w3.org/2000/svg" width="14" height="12.444" viewBox="0 0 14 12.444">
  <path id="FontAwsome_clinic-medical_" data-name="FontAwsome (clinic-medical)" d="M6.99,2.785,1.679,7.469a1.125,1.125,0,0,1-.133.081v4.495a.389.389,0,0,0,.389.389H12.045a.389.389,0,0,0,.389-.389V7.552a1.134,1.134,0,0,1-.128-.078ZM9.323,9.129a.194.194,0,0,1-.194.194H7.768v1.361a.194.194,0,0,1-.194.194H6.407a.194.194,0,0,1-.194-.194V9.323H4.851a.194.194,0,0,1-.194-.194V7.962a.194.194,0,0,1,.194-.194H6.212V6.407a.194.194,0,0,1,.194-.194H7.573a.194.194,0,0,1,.194.194V7.768H9.129a.194.194,0,0,1,.194.194Zm4.537-3.4L7.64.24a.969.969,0,0,0-1.3,0L.119,5.733a.389.389,0,0,0-.029.549l.52.579a.389.389,0,0,0,.549.029L6.733,1.974a.389.389,0,0,1,.515,0L12.821,6.89a.389.389,0,0,0,.549-.029l.52-.579A.389.389,0,0,0,13.861,5.733Z" transform="translate(0.01 0.01)" fill="#865e3b"/>
</svg>
