<svg xmlns="http://www.w3.org/2000/svg" width="27" height="24" viewBox="0 0 27 24">
  <path id="FontAwsome_house-damage_" data-name="FontAwsome (house-damage)" d="M13.5,5.389,3.258,14.424A2.169,2.169,0,0,1,3,14.581V23.25a.75.75,0,0,0,.75.75h7L9,20.587l4.88-3L11.062,12,18,18.41l-4.88,3L14.993,24h8.259a.75.75,0,0,0,.75-.75V14.583a2.187,2.187,0,0,1-.247-.15Zm13.251,5.687L24,8.646V2.25a.75.75,0,0,0-.75-.75h-3a.75.75,0,0,0-.75.75V4.673L14.756.483a1.868,1.868,0,0,0-2.505,0l-12,10.594a.75.75,0,0,0-.057,1.059l1,1.117a.75.75,0,0,0,1.059.057L13.006,3.826a.751.751,0,0,1,.992,0l10.749,9.481a.751.751,0,0,0,1.059-.057l1-1.117A.75.75,0,0,0,26.753,11.076Z" transform="translate(-0.002)" fill="#ab350f"/>
</svg>
