<svg xmlns="http://www.w3.org/2000/svg" width="20.566" height="18.281" viewBox="0 0 20.566 18.281">
  <path id="FontAwsome_mail-bulk_" data-name="FontAwsome (mail-bulk)" d="M5.713,16a4.331,4.331,0,0,1-2.285-1.143C1.143,13.254.457,12.682,0,12.34v4.8a1.143,1.143,0,0,0,1.143,1.143h9.14a1.143,1.143,0,0,0,1.143-1.143v-4.8c-.457.343-1.143.914-3.428,2.514A4.331,4.331,0,0,1,5.713,16Zm4.57-6.855H1.143A1.143,1.143,0,0,0,0,10.283v.571c.914.686.8.686,4.113,3.085.343.229,1.028.914,1.6.914s1.257-.686,1.6-.8c3.313-2.4,3.2-2.4,4.113-3.085v-.686A1.143,1.143,0,0,0,10.283,9.14Zm9.14-3.428H8A1.143,1.143,0,0,0,6.855,6.855V8h3.428a2.288,2.288,0,0,1,2.275,2.064l.01-.008v4.8h6.855a1.143,1.143,0,0,0,1.143-1.143V6.855A1.143,1.143,0,0,0,19.423,5.713Zm-1.143,4.57H16V8h2.285ZM5.713,6.855A2.288,2.288,0,0,1,8,4.57h8V1.143A1.143,1.143,0,0,0,14.853,0H3.428A1.143,1.143,0,0,0,2.285,1.143V8H5.713Z" fill="#8a5220"/>
</svg>
