<svg xmlns="http://www.w3.org/2000/svg" width="33.648" height="36.433" viewBox="0 0 33.648 36.433">
  <path id="FontAwsome_buffer_" data-name="FontAwsome (buffer)" d="M50.523,60.352l-15.98,7.955a1.513,1.513,0,0,1-1.193,0L17.37,60.352c-.325-.163-.325-.429,0-.593l3.827-1.9a1.517,1.517,0,0,1,1.195,0L33.35,63.307a1.505,1.505,0,0,0,1.193,0L45.5,57.858a1.514,1.514,0,0,1,1.194,0l3.827,1.905c.329.159.329.426,0,.589Zm0-11.1L46.7,47.344a1.514,1.514,0,0,0-1.194,0L34.543,52.8a1.519,1.519,0,0,1-1.193,0L22.391,47.344a1.517,1.517,0,0,0-1.195,0L17.37,49.249c-.325.163-.325.43,0,.594L33.35,57.8a1.513,1.513,0,0,0,1.193,0l15.98-7.953c.329-.164.329-.431,0-.594ZM17.37,40l15.98,7.343a1.633,1.633,0,0,0,1.193,0L50.523,40c.325-.151.325-.4,0-.548L34.542,32.111a1.617,1.617,0,0,0-1.193,0L17.37,39.453C17.04,39.6,17.04,39.85,17.37,40Z" transform="translate(-17.122 -31.997)" fill="#865e3b"/>
</svg>
