<svg xmlns="http://www.w3.org/2000/svg" width="32.375" height="37" viewBox="0 0 32.375 37">
  <path id="FontAwsome_bell_" data-name="FontAwsome (bell)" d="M31.752,26.181c-1.4-1.5-4.009-3.757-4.009-11.15A11.412,11.412,0,0,0,18.5,3.819V2.313a2.311,2.311,0,1,0-4.622,0V3.819A11.412,11.412,0,0,0,4.63,15.031c0,7.393-2.612,9.65-4.009,11.15A2.258,2.258,0,0,0,0,27.75a2.315,2.315,0,0,0,2.32,2.313H30.055a2.314,2.314,0,0,0,2.32-2.312,2.257,2.257,0,0,0-.622-1.569Zm-26.873.413c1.533-2.021,3.21-5.372,3.218-11.521,0-.014,0-.027,0-.042a8.094,8.094,0,0,1,16.188,0c0,.014,0,.027,0,.042.008,6.15,1.685,9.5,3.218,11.521ZM16.187,37a4.624,4.624,0,0,0,4.623-4.625H11.564A4.624,4.624,0,0,0,16.187,37Z" transform="translate(0.001)" fill="#865e3b"/>
</svg>
