<svg xmlns="http://www.w3.org/2000/svg" width="12.973" height="20.757" viewBox="0 0 12.973 20.757">
  <path id="FontAwsome_mobile-alt_" data-name="FontAwsome (mobile-alt)" d="M11.027,0H1.946A1.946,1.946,0,0,0,0,1.946V18.811a1.946,1.946,0,0,0,1.946,1.946h9.081a1.946,1.946,0,0,0,1.946-1.946V1.946A1.946,1.946,0,0,0,11.027,0ZM6.487,19.46a1.3,1.3,0,1,1,1.3-1.3A1.3,1.3,0,0,1,6.487,19.46Zm4.541-4.378a.488.488,0,0,1-.486.486H2.432a.488.488,0,0,1-.486-.486V2.432a.488.488,0,0,1,.486-.486h8.108a.488.488,0,0,1,.486.486Z" fill="#8a5220"/>
</svg>
