<svg xmlns="http://www.w3.org/2000/svg" width="54" height="42" viewBox="0 0 54 42">
  <path id="FontAwsome_address-card_" data-name="FontAwsome (address-card)" d="M49.5,32H4.5A4.5,4.5,0,0,0,0,36.5v33A4.5,4.5,0,0,0,4.5,74h45A4.5,4.5,0,0,0,54,69.5v-33A4.5,4.5,0,0,0,49.5,32Zm0,37.5H4.5v-33h45ZM19.5,53a6,6,0,1,0-6-6A6.006,6.006,0,0,0,19.5,53ZM11.1,65H27.9A1.966,1.966,0,0,0,30,63.2V61.4c0-2.981-2.822-5.4-6.3-5.4-1.013,0-1.753.75-4.2.75-2.522,0-3.131-.75-4.2-.75C11.822,56,9,58.419,9,61.4v1.8A1.966,1.966,0,0,0,11.1,65Zm22.65-6h10.5a.752.752,0,0,0,.75-.75v-1.5a.752.752,0,0,0-.75-.75H33.75a.752.752,0,0,0-.75.75v1.5A.752.752,0,0,0,33.75,59Zm0-6h10.5a.752.752,0,0,0,.75-.75v-1.5a.752.752,0,0,0-.75-.75H33.75a.752.752,0,0,0-.75.75v1.5A.752.752,0,0,0,33.75,53Zm0-6h10.5a.752.752,0,0,0,.75-.75v-1.5a.752.752,0,0,0-.75-.75H33.75a.752.752,0,0,0-.75.75v1.5A.752.752,0,0,0,33.75,47Z" transform="translate(0 -32)" fill="#865e3b"/>
</svg>
