<svg xmlns="http://www.w3.org/2000/svg" width="30.857" height="24" viewBox="0 0 30.857 24">
  <path id="FontAwsome_shopping-basket_" data-name="FontAwsome (shopping-basket)" d="M30.857,41.854v.857A1.286,1.286,0,0,1,29.571,44h-.429l-1.4,9.792A2.571,2.571,0,0,1,25.2,56H5.659a2.571,2.571,0,0,1-2.546-2.208L1.714,44H1.286A1.286,1.286,0,0,1,0,42.712v-.857a1.286,1.286,0,0,1,1.286-1.286H4.893l5.72-7.865a1.714,1.714,0,1,1,2.773,2.017L9.133,40.569H21.724L17.471,34.72A1.714,1.714,0,0,1,20.243,32.7l5.72,7.865h3.608A1.286,1.286,0,0,1,30.857,41.854ZM16.714,51.283v-6a1.286,1.286,0,0,0-2.571,0v6a1.286,1.286,0,1,0,2.571,0Zm6,0v-6a1.286,1.286,0,1,0-2.571,0v6a1.286,1.286,0,1,0,2.571,0Zm-12,0v-6a1.286,1.286,0,0,0-2.571,0v6a1.286,1.286,0,1,0,2.571,0Z" transform="translate(0 -31.997)" fill="#707070"/>
</svg>
