<svg xmlns="http://www.w3.org/2000/svg" width="24" height="24" viewBox="0 0 24 24">
  <path id="FontAwsome_street-view_" data-name="FontAwsome (street-view)" d="M17.245,15.458a3,3,0,0,1-.745.64v1.075c3.118.438,5.25,1.315,5.25,2.327,0,1.45-4.365,2.625-9.75,2.625S2.25,20.95,2.25,19.5c0-1.013,2.132-1.889,5.25-2.327V16.1a3,3,0,0,1-.745-.64C2.76,16.188,0,17.721,0,19.5,0,21.985,5.373,24,12,24s12-2.015,12-4.5C24,17.721,21.24,16.188,17.245,15.458ZM12,6A3,3,0,1,0,9,3,3,3,0,0,0,12,6ZM9,15v4.5A1.5,1.5,0,0,0,10.5,21h3A1.5,1.5,0,0,0,15,19.5V15a1.5,1.5,0,0,0,1.5-1.5V9a2.25,2.25,0,0,0-2.25-2.25H13.7a4.027,4.027,0,0,1-3.394,0H9.75A2.25,2.25,0,0,0,7.5,9v4.5A1.5,1.5,0,0,0,9,15Z" fill="#f3e9cd"/>
</svg>
