<svg xmlns="http://www.w3.org/2000/svg" width="15.381" height="17.578" viewBox="0 0 15.381 17.578">
  <path id="FontAwsome_unlock-alt_" data-name="FontAwsome (unlock-alt)" d="M13.733,8.788H5.219V5.249a2.472,2.472,0,1,1,4.944-.031v.549a.822.822,0,0,0,.824.824h1.1a.822.822,0,0,0,.824-.824V5.218a5.219,5.219,0,1,0-10.437.051V8.788H1.648A1.648,1.648,0,0,0,0,10.436v5.493a1.648,1.648,0,0,0,1.648,1.648H13.733a1.648,1.648,0,0,0,1.648-1.648V10.436A1.648,1.648,0,0,0,13.733,8.788ZM9.064,14.007a1.373,1.373,0,1,1-2.747,0V12.359a1.373,1.373,0,0,1,2.747,0Z" transform="translate(0 0.001)" fill="#8a5220"/>
</svg>
