<svg xmlns="http://www.w3.org/2000/svg" width="22.463" height="17.971" viewBox="0 0 22.463 17.971">
  <path id="FontAwsome_user-edit_" data-name="FontAwsome (user-edit)" d="M7.862,8.985A4.493,4.493,0,1,0,3.37,4.493,4.492,4.492,0,0,0,7.862,8.985Zm3.145,1.123h-.586a6.11,6.11,0,0,1-5.118,0H4.717A4.719,4.719,0,0,0,0,14.826v1.46a1.685,1.685,0,0,0,1.685,1.685h9.649a1.686,1.686,0,0,1-.091-.748l.239-2.138.042-.39.277-.277,2.713-2.713A4.669,4.669,0,0,0,11.007,10.109Zm1.59,5.1-.239,2.141a.559.559,0,0,0,.618.618l2.138-.239,4.84-4.84-2.517-2.517Zm9.621-5.77-1.33-1.33a.841.841,0,0,0-1.186,0L18.375,9.435l-.144.144,2.52,2.517,1.467-1.467A.845.845,0,0,0,22.218,9.438Z" fill="#8a5220"/>
</svg>
