<svg xmlns="http://www.w3.org/2000/svg" width="24" height="24" viewBox="0 0 24 24">
  <path id="FontAwsome_user-circle_" data-name="FontAwsome (user-circle)" d="M12,8A12,12,0,1,0,24,20,12,12,0,0,0,12,8Zm0,4.645A4.258,4.258,0,1,1,7.742,16.9,4.258,4.258,0,0,1,12,12.645ZM12,29.29a9.272,9.272,0,0,1-7.089-3.3A5.4,5.4,0,0,1,9.677,23.1a1.184,1.184,0,0,1,.344.053A6.407,6.407,0,0,0,12,23.484a6.382,6.382,0,0,0,1.979-.334,1.184,1.184,0,0,1,.344-.053,5.4,5.4,0,0,1,4.766,2.894A9.272,9.272,0,0,1,12,29.29Z" transform="translate(0 -8)" fill="#707070"/>
</svg>
