<svg xmlns="http://www.w3.org/2000/svg" width="26.085" height="34.78" viewBox="0 0 26.085 34.78">
  <path id="FontAwsome_file-contract_" data-name="FontAwsome (file-contract)" d="M15.216,9.238V0H1.63A1.626,1.626,0,0,0,0,1.63V33.149a1.626,1.626,0,0,0,1.63,1.63H24.454a1.626,1.626,0,0,0,1.63-1.63V10.869H16.846A1.635,1.635,0,0,1,15.216,9.238ZM4.347,4.891a.543.543,0,0,1,.543-.543h5.434a.543.543,0,0,1,.543.543V5.978a.543.543,0,0,1-.543.543H4.891a.543.543,0,0,1-.543-.543Zm0,4.347a.543.543,0,0,1,.543-.543h5.434a.543.543,0,0,1,.543.543v1.087a.543.543,0,0,1-.543.543H4.891a.543.543,0,0,1-.543-.543Zm13.1,16.846H20.65a1.087,1.087,0,1,1,0,2.174H17.445a2.92,2.92,0,0,1-2.625-1.621.753.753,0,0,0-.691-.443.741.741,0,0,0-.681.42l-.521,1.042a1.086,1.086,0,0,1-.972.6c-.026,0-.051,0-.077,0a1.083,1.083,0,0,1-.953-.74L9.782,24.087l-.721,2.166a2.933,2.933,0,0,1-2.785,2.006H5.434a1.087,1.087,0,1,1,0-2.174h.842A.761.761,0,0,0,7,25.564l1.236-3.712a1.631,1.631,0,0,1,3.094,0l.943,2.829a3.048,3.048,0,0,1,4.483.962.775.775,0,0,0,.69.442ZM25.609,7.133,18.959.476A1.629,1.629,0,0,0,17.8,0H17.39V8.695h8.695V8.281A1.625,1.625,0,0,0,25.609,7.133Z" fill="#865e3b"/>
</svg>
