<svg xmlns="http://www.w3.org/2000/svg" width="27.429" height="24" viewBox="0 0 27.429 24">
  <path id="FontAwsome_list-alt_" data-name="FontAwsome (list-alt)" d="M24.857,32H2.571A2.571,2.571,0,0,0,0,34.571V53.429A2.571,2.571,0,0,0,2.571,56H24.857a2.571,2.571,0,0,0,2.571-2.571V34.571A2.571,2.571,0,0,0,24.857,32Zm-.321,21.429H2.893a.321.321,0,0,1-.321-.321V34.893a.321.321,0,0,1,.321-.321H24.536a.321.321,0,0,1,.321.321V53.107A.321.321,0,0,1,24.536,53.429ZM22.286,48.5v1.286a.643.643,0,0,1-.643.643H10.929a.643.643,0,0,1-.643-.643V48.5a.643.643,0,0,1,.643-.643H21.643A.643.643,0,0,1,22.286,48.5Zm0-5.143v1.286a.643.643,0,0,1-.643.643H10.929a.643.643,0,0,1-.643-.643V43.357a.643.643,0,0,1,.643-.643H21.643A.643.643,0,0,1,22.286,43.357Zm0-5.143V39.5a.643.643,0,0,1-.643.643H10.929a.643.643,0,0,1-.643-.643V38.214a.643.643,0,0,1,.643-.643H21.643A.643.643,0,0,1,22.286,38.214Zm-13.5.643a1.929,1.929,0,1,1-1.929-1.929A1.929,1.929,0,0,1,8.786,38.857Zm0,5.143a1.929,1.929,0,1,1-1.929-1.929A1.929,1.929,0,0,1,8.786,44Zm0,5.143a1.929,1.929,0,1,1-1.929-1.929A1.929,1.929,0,0,1,8.786,49.143Z" transform="translate(0 -32)" fill="#fff"/>
</svg>
